<?xml version="1.0" encoding="utf-8"?>
<!-- Generator: Adobe Illustrator 16.0.0, SVG Export Plug-In . SVG Version: 6.00 Build 0)  -->
<!DOCTYPE svg PUBLIC "-//W3C//DTD SVG 1.1//EN" "http://www.w3.org/Graphics/SVG/1.1/DTD/svg11.dtd">
<svg version="1.1" id="Layer_1" xmlns="http://www.w3.org/2000/svg" xmlns:xlink="http://www.w3.org/1999/xlink" x="0px" y="0px"
	 width="71px" height="71px" viewBox="0 0 71 71" style="enable-background:new 0 0 71 71;" xml:space="preserve">
<path style="fill:#EFEBE3;" d="M35.506,35.493h-0.012v0.015C35.498,35.502,35.502,35.498,35.506,35.493z"/>
<g>
	<circle style="fill:none;stroke:#FAFAFA;stroke-miterlimit:10;" cx="35.499" cy="35.5" r="25"/>
	<rect x="30.605" y="46.654" style="fill:#FAFAFA;" width="0" height="0.005"/>
	<path style="fill:#FAFAFA;" d="M19.251,47.871c1.252,0.791,2.067,1.922,2.604,3.255c0.846,2.088,2.486,3.02,4.619,3.202
		c1.041,0.084,2.091,0.013,3.23,0.013c0,1.297,0.047,2.778-0.019,4.252c-0.024,0.558-0.43,0.876-1,0.905
		c2.125,0.649,4.379,1.002,6.716,1.002c2.33,0,4.574-0.351,6.692-0.996c-0.583-0.074-0.94-0.502-0.944-1.214
		c-0.013-1.677-0.013-3.35,0.015-5.025c0.029-1.928-0.015-3.832-1.482-5.422c0.872-0.155,1.647-0.265,2.406-0.439
		c5.03-1.154,7.643-4.328,7.976-9.593c0.17-2.68-0.307-5.138-2.087-7.249c-0.131-0.148-0.137-0.485-0.075-0.702
		c0.475-1.744,0.336-3.45-0.218-5.156c-0.136-0.426-0.361-0.559-0.782-0.53c-1.477,0.081-2.831,0.6-4.022,1.397
		c-1.151,0.772-2.221,0.939-3.587,0.628c-3.009-0.678-6.036-0.481-9.039,0.214c-0.339,0.082-0.796-0.025-1.107-0.209
		c-1.41-0.826-2.819-1.628-4.444-1.949c-1.256-0.245-1.366-0.182-1.699,1.032c-0.419,1.533-0.461,3.065-0.033,4.605
		c0.061,0.224-0.002,0.583-0.153,0.75c-3.33,3.715-2.125,10.736,0.119,13.426c1.747,2.089,4.063,3.027,6.637,3.517
		c0.447,0.084,0.893,0.147,1.339,0.227c0.008-0.02,0.014-0.032,0.021-0.05c0.084,0.094,0.069,0.063,0.052,0.062
		c-0.024-0.004-0.045-0.007-0.068-0.012c-0.386,1.003-0.731,1.948-1.123,2.881c-0.078,0.178-0.321,0.33-0.52,0.405
		c-2.524,0.979-4.693,0.259-6.138-2.031c-0.772-1.224-1.763-2.136-3.241-2.4c-0.046-0.01-0.094-0.033-0.137-0.026
		c-0.398,0.104-0.792,0.213-1.187,0.32C18.796,47.271,18.954,47.686,19.251,47.871z"/>
</g>
</svg>
