<?xml version="1.0" encoding="utf-8"?>
<!-- Generator: Adobe Illustrator 16.0.0, SVG Export Plug-In . SVG Version: 6.00 Build 0)  -->
<!DOCTYPE svg PUBLIC "-//W3C//DTD SVG 1.1//EN" "http://www.w3.org/Graphics/SVG/1.1/DTD/svg11.dtd">
<svg version="1.1" id="Layer_1" xmlns="http://www.w3.org/2000/svg" xmlns:xlink="http://www.w3.org/1999/xlink" x="0px" y="0px"
	 width="71px" height="71px" viewBox="0 0 71 71" style="enable-background:new 0 0 71 71;" xml:space="preserve">
<g>
	<g>
		<circle style="fill:none;stroke:#FAFAFA;stroke-miterlimit:10;" cx="35.5" cy="35.5" r="25"/>
	</g>
	<g>
		<g>
			<rect x="23.66" y="30.388" style="fill:#FAFAFA;" width="5.457" height="17.625"/>
			<ellipse style="fill:#FAFAFA;" cx="26.362" cy="24.829" rx="3.226" ry="3.253"/>
		</g>
		<path style="fill:#FAFAFA;" d="M37.836,38.762c0-2.478,1.142-3.955,3.324-3.955c2.007,0,2.971,1.417,2.971,3.955s0,9.252,0,9.252
			h5.43c0,0,0-6.438,0-11.16c0-4.72-2.676-7.004-6.413-7.004c-3.738,0-5.313,2.913-5.313,2.913v-2.375h-5.233v17.626h5.233
			C37.836,48.014,37.836,41.477,37.836,38.762z"/>
	</g>
</g>
</svg>
