<?xml version="1.0" encoding="utf-8"?>
<!-- Generator: Adobe Illustrator 16.0.0, SVG Export Plug-In . SVG Version: 6.00 Build 0)  -->
<!DOCTYPE svg PUBLIC "-//W3C//DTD SVG 1.1//EN" "http://www.w3.org/Graphics/SVG/1.1/DTD/svg11.dtd">
<svg version="1.1" id="Layer_1" xmlns="http://www.w3.org/2000/svg" xmlns:xlink="http://www.w3.org/1999/xlink" x="0px" y="0px"
	 width="70px" height="93.251px" viewBox="0 0 70 93.251" style="enable-background:new 0 0 70 93.251;" xml:space="preserve">
<path style="fill:#FAFAFA;" d="M0.025,56.353c0.091,1.131,0.473,2.239,1.097,3.188c0.623,0.949,1.481,1.739,2.48,2.28
	c0.998,0.544,2.136,0.829,3.269,0.826c0.954,0.001,1.91-0.199,2.783-0.589c0.218-0.098,0.431-0.204,0.639-0.326
	c0.103-0.058,0.205-0.121,0.305-0.185l0.038-0.026c0.013-0.007,0.003,0,0.007-0.003l0.053,0.307
	c0.154,0.779,0.445,1.532,0.856,2.213c0.819,1.361,2.122,2.421,3.627,2.941c1.502,0.524,3.178,0.505,4.669-0.057
	c0.744-0.278,1.438-0.688,2.043-1.203l0.283-0.256l0.023,0.194c0.058,0.435,0.159,0.865,0.3,1.279
	c0.561,1.671,1.788,3.094,3.352,3.897c1.563,0.816,3.433,0.988,5.118,0.483c0.843-0.251,1.636-0.665,2.322-1.214
	c0.17-0.136,0.336-0.28,0.494-0.435l0.011-0.012v6.768v5.268v2.635v0.658c0.001,0.224-0.002,0.428,0.004,0.685
	c0.015,0.492,0.077,0.984,0.185,1.465c0.423,1.931,1.615,3.67,3.25,4.771c0.815,0.553,1.737,0.95,2.7,1.161
	c0.965,0.213,1.964,0.238,2.937,0.083c1.953-0.305,3.761-1.395,4.956-2.961c0.602-0.781,1.054-1.676,1.322-2.626
	c0.135-0.475,0.224-0.961,0.267-1.452c0.021-0.242,0.029-0.496,0.029-0.73v-0.66V44.637l0.339,0.298
	c0.614,0.531,1.254,1.032,1.916,1.504c1.326,0.943,2.735,1.76,4.235,2.426c1.521,0.669,3.193,1.101,4.909,1.1
	c0.857,0,1.719-0.108,2.555-0.336c0.418-0.115,0.829-0.258,1.23-0.435c0.403-0.181,0.784-0.376,1.184-0.659
	c0.524-0.318,1.008-0.685,1.464-1.083c0.456-0.4,0.884-0.841,1.266-1.332c0.382-0.49,0.721-1.03,0.975-1.623
	c0.256-0.594,0.423-1.238,0.47-1.9c0.047-0.661-0.031-1.328-0.207-1.951c-0.177-0.627-0.445-1.208-0.767-1.74
	c-0.643-1.066-1.482-1.955-2.348-2.727c-1.692-1.518-3.425-2.933-5.114-4.388c-1.692-1.453-3.35-2.931-4.929-4.48
	c-3.155-3.096-6.016-6.5-8.115-10.335c-1.05-1.916-1.902-3.931-2.502-6.02c-0.602-2.086-0.947-4.242-1.029-6.413
	c-0.011-0.272-0.017-0.543-0.02-0.814l-0.002-0.211c0.001-0.077-0.005-0.145-0.016-0.213c-0.008-0.063-0.017-0.107-0.027-0.158
	c-0.04-0.195-0.097-0.373-0.165-0.547c-0.275-0.694-0.78-1.272-1.361-1.667c-0.582-0.396-1.223-0.624-1.849-0.758
	C40.914,0.039,40.283-0.004,39.689,0H32.97H19.532h-3.359h-1.68h-0.84c-0.359-0.003-0.684,0.044-1.004,0.107
	c-0.639,0.132-1.266,0.366-1.839,0.73c-0.573,0.361-1.08,0.86-1.443,1.439c-0.092,0.146-0.175,0.294-0.25,0.447L8.932,3.111
	L8.569,3.86l-0.74,1.502c-1.991,4.006-4.012,8.007-6.03,12c-0.134,0.266-0.235,0.495-0.339,0.741
	c-0.101,0.242-0.197,0.487-0.286,0.731c-0.179,0.489-0.337,0.986-0.476,1.484c-0.277,1.003-0.476,2.026-0.589,3.062
	c-0.056,0.518-0.092,1.038-0.104,1.561L0,25.333v0.373v0.748v2.982v11.931V53.3v1.491v0.745C0,55.771-0.002,56.075,0.025,56.353z
	 M1.704,54.792V53.3V41.367V29.436v-2.982v-0.748v-0.372l0.005-0.354c0.011-0.471,0.042-0.943,0.094-1.414
	c0.103-0.942,0.286-1.876,0.539-2.792c0.126-0.458,0.271-0.911,0.434-1.356c0.081-0.221,0.167-0.441,0.258-0.657
	c0.088-0.211,0.189-0.439,0.279-0.615l0.003-0.007l0.003-0.005c2.023-4.003,4.041-7.996,6.038-12.014L10.1,4.609l0.37-0.762
	l0.176-0.371c0.049-0.099,0.102-0.195,0.16-0.287c0.233-0.369,0.543-0.676,0.917-0.914c0.373-0.235,0.811-0.404,1.268-0.498
	c0.228-0.045,0.461-0.076,0.663-0.072h0.84h1.68h3.359H32.97h6.719c0.524-0.003,1.02,0.035,1.491,0.135
	c0.467,0.099,0.899,0.263,1.243,0.5c0.344,0.234,0.601,0.542,0.741,0.892c0.034,0.085,0.062,0.175,0.079,0.255l0.008,0.049
	c0,0,0,0.001,0-0.005l0.001,0.209c0.001,0.29,0.009,0.576,0.021,0.865c0.086,2.306,0.454,4.604,1.094,6.821
	c0.639,2.219,1.542,4.354,2.646,6.366c2.21,4.035,5.185,7.563,8.416,10.733c1.616,1.587,3.304,3.092,5.013,4.558
	c1.703,1.467,3.441,2.888,5.083,4.36c0.804,0.717,1.512,1.481,2.028,2.339c0.516,0.852,0.802,1.782,0.734,2.695
	c-0.061,0.915-0.472,1.81-1.087,2.595c-0.614,0.782-1.417,1.479-2.28,2.01l-0.051,0.036l-0.053,0.033
	c-0.242,0.174-0.561,0.345-0.874,0.483c-0.318,0.141-0.65,0.256-0.991,0.35c-0.681,0.184-1.391,0.273-2.106,0.273
	c-1.433,0.002-2.872-0.358-4.226-0.953c-1.371-0.61-2.695-1.376-3.931-2.255c-0.617-0.44-1.216-0.91-1.79-1.404l-0.214-0.189
	l-0.337-0.302c-0.275-0.254-0.571-0.539-0.858-0.829l-1.748-1.816v44.213v0.66c0,0.202-0.007,0.389-0.024,0.583
	c-0.032,0.385-0.102,0.764-0.207,1.135c-0.211,0.741-0.563,1.441-1.034,2.053c-0.938,1.228-2.351,2.078-3.876,2.316
	c-1.525,0.25-3.135-0.102-4.409-0.973c-1.28-0.862-2.214-2.225-2.543-3.73c-0.084-0.376-0.132-0.762-0.144-1.146
	c-0.005-0.181-0.003-0.415-0.004-0.633v-0.658v-2.635v-5.268V62.242l-1.313,3.421c-0.176,0.46-0.317,0.83-0.453,1.161
	c-0.13,0.275-0.253,0.513-0.376,0.695c-0.123,0.193-0.247,0.356-0.374,0.511c-0.064,0.075-0.127,0.153-0.194,0.222l-0.1,0.104
	l-0.09,0.091c-0.118,0.115-0.243,0.224-0.371,0.326c-0.517,0.413-1.112,0.726-1.744,0.912c-1.264,0.38-2.68,0.251-3.849-0.362
	c-1.175-0.604-2.103-1.68-2.521-2.932c-0.105-0.312-0.181-0.634-0.225-0.961l-0.015-0.122l-0.004-0.035l-0.006-0.08l-0.01-0.145
	c-0.014-0.192-0.011-0.391-0.012-0.591V63.27v-4.585l-1.084,2.517l-0.441,1.025l-0.19,0.436l-0.089,0.177
	c-0.029,0.06-0.058,0.117-0.087,0.164c-0.229,0.405-0.449,0.693-0.687,0.958c-0.059,0.062-0.125,0.135-0.177,0.186l-0.132,0.126
	c-0.055,0.052-0.11,0.102-0.167,0.149c-0.456,0.388-0.977,0.697-1.536,0.907c-1.114,0.42-2.386,0.435-3.511,0.04
	c-1.128-0.39-2.111-1.188-2.727-2.214c-0.309-0.509-0.528-1.075-0.644-1.659c-0.015-0.075-0.026-0.145-0.038-0.224l-0.031-0.246
	c-0.009-0.083-0.011-0.175-0.02-0.264c-0.015-0.356-0.007-0.742-0.009-1.116V57.48l-1.09,1.224l-0.535,0.596
	c-0.171,0.182-0.337,0.335-0.505,0.475c-0.083,0.072-0.168,0.128-0.254,0.195c-0.041,0.032-0.085,0.06-0.128,0.09l-0.085,0.059
	c-0.076,0.048-0.153,0.095-0.23,0.141c-0.155,0.089-0.316,0.17-0.48,0.243c-0.655,0.293-1.371,0.441-2.091,0.442
	c-0.857,0-1.707-0.214-2.458-0.62c-0.75-0.407-1.398-1.003-1.866-1.718c-0.469-0.714-0.755-1.543-0.825-2.394
	c-0.02-0.218-0.019-0.411-0.019-0.676V54.792z"/>
</svg>
