<?xml version="1.0" encoding="utf-8"?>
<!-- Generator: Adobe Illustrator 16.0.0, SVG Export Plug-In . SVG Version: 6.00 Build 0)  -->
<!DOCTYPE svg PUBLIC "-//W3C//DTD SVG 1.1//EN" "http://www.w3.org/Graphics/SVG/1.1/DTD/svg11.dtd">
<svg version="1.1" id="Layer_1" xmlns="http://www.w3.org/2000/svg" xmlns:xlink="http://www.w3.org/1999/xlink" x="0px" y="0px"
	 width="71px" height="71px" viewBox="0 0 71 71" style="enable-background:new 0 0 71 71;" xml:space="preserve">
<g>
	<circle style="fill:none;stroke:#FAFAFA;stroke-miterlimit:10;" cx="35.501" cy="35.5" r="25"/>
	<path style="fill:#FAFAFA;" d="M21.041,35.798c0,8.109,6.574,14.683,14.684,14.683c0.94,0,1.859-0.091,2.751-0.261
		c1.292,0.78,2.807,1.23,4.427,1.23c4.731-0.001,8.568-3.839,8.568-8.571c0-1.66-0.474-3.208-1.289-4.521
		c0.146-0.832,0.227-1.687,0.227-2.561c0-8.11-6.575-14.685-14.684-14.685c-0.923,0-1.827,0.089-2.704,0.252
		c-1.297-0.79-2.82-1.244-4.45-1.244c-4.733,0-8.57,3.836-8.57,8.57c0,1.649,0.468,3.189,1.275,4.497
		C21.125,34.036,21.041,34.906,21.041,35.798z M35.881,25.365c4.735,0.277,7.509,2.359,7.778,4.305
		c0.133,1.271-0.713,2.259-2.18,2.259c-2.143,0-2.361-2.854-6.049-2.854c-1.663,0-3.068,0.692-3.068,2.192
		c0,3.135,11.819,1.314,11.819,8.218c0,3.979-3.187,6.587-7.94,6.587c-4.181,0-8.385-1.896-8.363-5.159
		c0.006-0.985,0.742-1.888,1.718-1.888c2.463,0,2.44,3.657,6.361,3.657c2.751,0,3.69-1.5,3.69-2.547
		c0-3.776-11.889-1.461-11.889-8.565C27.76,27.724,30.918,25.073,35.881,25.365z"/>
</g>
</svg>
